<svg width="512" height="512" viewBox="0 0 512 512" fill="none" xmlns="http://www.w3.org/2000/svg">
    <path d="M74.9807 74.9807C174.955 -24.9936 337.045 -24.9936 437.019 74.9807C536.994 174.955 536.994 337.045 437.019 437.019C337.045 536.994 174.955 536.994 74.9807 437.019C-24.9936 337.045 -24.9936 174.955 74.9807 74.9807Z" fill="#EFEFEF"/>
    <path d="M330.599 104.135H311.851V350.039H282.639V104.135H258.223V350.039H228.575V234.499C200.671 233.917 180.76 226.651 168.843 212.699C156.925 198.456 150.967 177.964 150.967 151.223C150.967 127.388 157.071 109.076 169.279 96.2867C181.777 83.2067 202.56 76.812 231.627 77.1027H330.599V104.135Z" fill="black"/>
    <path d="M318.196 384.504C338.584 372.57 363.827 372.57 384.215 384.504L408.132 398.504C416.711 403.526 419.595 414.552 414.573 423.131C409.551 431.711 398.525 434.595 389.946 429.573L366.029 415.573C356.873 410.213 345.537 410.213 336.382 415.573C315.993 427.507 290.75 427.508 270.362 415.573C261.206 410.214 249.871 410.214 240.715 415.573C220.327 427.508 195.084 427.507 174.696 415.573C165.54 410.213 154.204 410.213 145.048 415.573L121.132 429.573C112.552 434.595 101.527 431.711 96.5045 423.131C91.4827 414.552 94.3667 403.526 102.946 398.504L126.862 384.504C147.25 372.57 172.493 372.57 192.882 384.504C202.037 389.864 213.373 389.864 222.529 384.504C242.917 372.57 268.16 372.57 288.548 384.504C297.704 389.864 309.04 389.864 318.196 384.504Z" fill="#CF4242"/>
</svg>
