<svg width="512" height="512" viewBox="0 0 512 512" fill="none" xmlns="http://www.w3.org/2000/svg">
    <path d="M0 60C0 26.8629 26.8629 0 60 0H452C485.137 0 512 26.8629 512 60V452C512 485.137 485.137 512 452 512H60C26.8629 512 0 485.137 0 452V60Z" fill="#EFEFEF"/>
    <path d="M345.56 95.896H324.662V370H292.1V95.896H264.884V370H231.836V241.21C200.732 240.562 178.538 232.462 165.254 216.91C151.97 201.034 145.328 178.192 145.328 148.384C145.328 121.816 152.132 101.404 165.74 87.148C179.672 72.568 202.838 65.44 235.238 65.764H345.56V95.896Z" fill="black"/>
    <path d="M316.642 414.877C337.966 402.394 364.368 402.394 385.692 414.877L409.608 428.877C419.618 434.736 422.982 447.599 417.123 457.608C411.264 467.618 398.401 470.982 388.392 465.123L364.475 451.123C356.255 446.312 346.078 446.312 337.858 451.123C316.534 463.606 290.132 463.606 268.808 451.123C260.588 446.312 250.412 446.312 242.192 451.123C220.868 463.606 194.466 463.606 173.142 451.123C164.922 446.312 154.745 446.312 146.525 451.123L122.608 465.123C112.599 470.982 99.736 467.618 93.8769 457.608C88.018 447.599 91.3824 434.736 101.392 428.877L125.308 414.877C146.632 402.394 173.034 402.394 194.358 414.877C202.578 419.688 212.755 419.688 220.975 414.877C242.299 402.394 268.701 402.394 290.025 414.877C298.245 419.688 308.422 419.688 316.642 414.877Z" fill="#CF4242"/>
</svg>
